<svg xmlns="http://www.w3.org/2000/svg" viewBox="0 0 880 340" font-family="Inter, -apple-system, system-ui, sans-serif" font-size="13">
  <defs>
    <style>
      .box { rx: 8; ry: 8; stroke-width: 1.5; }
      .label { text-anchor: middle; dominant-baseline: central; font-weight: 600; }
      .sublabel { text-anchor: middle; dominant-baseline: central; font-weight: 400; font-size: 11; opacity: 0.7; }
      .arrow { stroke-width: 1.5; fill: none; marker-end: url(#arrowhead); }
      .arrow-both { stroke-width: 1.5; fill: none; marker-start: url(#arrowhead-rev); marker-end: url(#arrowhead); }
    </style>
    <marker id="arrowhead" markerWidth="8" markerHeight="6" refX="8" refY="3" orient="auto">
      <path d="M0,0 L8,3 L0,6" fill="#64748b" />
    </marker>
    <marker id="arrowhead-rev" markerWidth="8" markerHeight="6" refX="0" refY="3" orient="auto">
      <path d="M8,0 L0,3 L8,6" fill="#64748b" />
    </marker>
  </defs>

  <!-- Background -->
  <rect width="880" height="340" fill="#0f172a" rx="12" />

  <!-- Telegram -->
  <rect x="30" y="110" width="120" height="56" class="box" fill="#1e293b" stroke="#3b82f6" />
  <text x="90" y="138" class="label" fill="#e2e8f0">Telegram</text>

  <!-- Go Gateway group -->
  <rect x="210" y="60" width="180" height="156" class="box" fill="#1e293b" stroke="#6366f1" />
  <text x="300" y="90" class="label" fill="#e2e8f0">Go Gateway</text>
  <!-- sub-components -->
  <rect x="226" y="108" width="148" height="32" rx="5" fill="#334155" stroke="#475569" stroke-width="1" />
  <text x="300" y="124" class="sublabel" fill="#cbd5e1">Router</text>
  <rect x="226" y="150" width="148" height="32" rx="5" fill="#334155" stroke="#475569" stroke-width="1" />
  <text x="300" y="166" class="sublabel" fill="#cbd5e1">Orchestrator</text>
  <rect x="226" y="192" width="148" height="16" rx="4" fill="#334155" stroke="#475569" stroke-width="0.5" />
  <text x="300" y="200" fill="#94a3b8" font-size="9" text-anchor="middle" dominant-baseline="central">Scheduler · Swarm · Vault</text>

  <!-- Embedded NATS -->
  <rect x="450" y="110" width="140" height="56" class="box" fill="#1e293b" stroke="#8b5cf6" />
  <text x="520" y="132" class="label" fill="#e2e8f0">Embedded</text>
  <text x="520" y="148" class="label" fill="#e2e8f0">NATS</text>

  <!-- Agent Containers -->
  <rect x="650" y="88" width="200" height="100" class="box" fill="#1e293b" stroke="#10b981" />
  <text x="750" y="118" class="label" fill="#e2e8f0">Agent Containers</text>
  <rect x="666" y="136" width="168" height="20" rx="4" fill="#334155" stroke="#475569" stroke-width="1" />
  <text x="750" y="146" fill="#cbd5e1" font-size="10" text-anchor="middle" dominant-baseline="central">Claude Code SDK</text>
  <rect x="666" y="160" width="168" height="20" rx="4" fill="#334155" stroke="#475569" stroke-width="1" />
  <text x="750" y="170" fill="#cbd5e1" font-size="10" text-anchor="middle" dominant-baseline="central">MCP Servers · Browser</text>

  <!-- SQLite -->
  <rect x="240" y="270" width="120" height="48" class="box" fill="#1e293b" stroke="#f59e0b" />
  <text x="300" y="294" class="label" fill="#e2e8f0">SQLite</text>

  <!-- Mission Control -->
  <rect x="430" y="270" width="160" height="48" class="box" fill="#1e293b" stroke="#ec4899" />
  <text x="510" y="288" class="label" fill="#e2e8f0">Mission Control</text>
  <text x="510" y="304" class="sublabel" fill="#cbd5e1">React SPA</text>

  <!-- AgentMail -->
  <rect x="30" y="270" width="140" height="48" class="box" fill="#1e293b" stroke="#06b6d4" />
  <text x="100" y="288" class="label" fill="#e2e8f0">AgentMail</text>
  <text x="100" y="304" class="sublabel" fill="#cbd5e1">WebSocket</text>

  <!-- Arrows -->
  <!-- Telegram <-> Gateway -->
  <line x1="150" y1="138" x2="210" y2="138" class="arrow-both" stroke="#64748b" />

  <!-- Gateway <-> NATS -->
  <line x1="390" y1="138" x2="450" y2="138" class="arrow-both" stroke="#64748b" />

  <!-- NATS <-> Agents -->
  <line x1="590" y1="138" x2="650" y2="138" class="arrow-both" stroke="#64748b" />

  <!-- Gateway -> SQLite -->
  <line x1="300" y1="216" x2="300" y2="270" class="arrow-both" stroke="#64748b" />

  <!-- Gateway -> Mission Control -->
  <line x1="370" y1="216" x2="510" y2="270" class="arrow-both" stroke="#64748b" />

  <!-- AgentMail -> Gateway -->
  <line x1="170" y1="294" x2="210" y2="216" class="arrow-both" stroke="#64748b" />
</svg>
